<svg width="270" height="161" viewBox="0 0 270 161" fill="none" xmlns="http://www.w3.org/2000/svg">
  <path fill="#EBC136"
    d="M102.88 41.95c-4.806.287-9.613.512-14.422.677-4.808.178-9.618.3-14.427.411-4.81.093-9.621.174-14.433.2-4.81.039-9.623.016-14.437-.07a565.01 565.01 0 0 1 14.422-.677c4.808-.178 9.618-.3 14.427-.41 4.81-.092 9.621-.173 14.433-.198 4.81-.039 9.624-.016 14.437.067ZM64.172 56.43c-4.806.286-9.614.511-14.422.676-4.809.178-9.618.3-14.428.41-4.81.094-9.62.175-14.432.2-4.811.04-9.624.017-14.438-.068a564.1 564.1 0 0 1 14.422-.679c4.809-.177 9.618-.3 14.428-.409 4.81-.092 9.62-.173 14.432-.198 4.811-.039 9.624-.016 14.438.067ZM80.716 72.633c-4.806.286-9.613.512-14.422.677-4.808.177-9.618.3-14.427.41-4.81.094-9.621.175-14.433.2-4.81.04-9.623.016-14.437-.069 4.806-.287 9.613-.513 14.422-.678 4.808-.177 9.618-.3 14.427-.41 4.81-.091 9.621-.173 14.433-.198 4.81-.038 9.623-.016 14.437.068Z" />
  <path fill="#8C8686"
    d="M255.552 154H34.448a.428.428 0 0 1-.317-.146.532.532 0 0 1-.131-.354c0-.133.047-.26.131-.354a.428.428 0 0 1 .317-.146h221.104c.119 0 .233.053.317.146a.532.532 0 0 1 .131.354c0 .133-.047.26-.131.354a.428.428 0 0 1-.317.146Z" />
  <path fill="#D19E8A"
    d="M136.203 8.867a9.264 9.264 0 0 1 4.336.335c.656.227 3.053 1.055 4.238 3.311.449.857.558 1.892.776 3.96.136 1.293.642 2.215.654 3.793a13.348 13.348 0 0 1-.589 3.77c-.563 1.912-.181 2.992-.467 3.35-1.152 1.448-4.696.35-4.733 2.226-.023 1.158 1.971 6.138 1.943 7.495-.066 3.16-5.364-.101-8.557-4.788-.145-.213-2.311-1.458-2.103-3.507.111-1.095.994-6.235.9-6.897-.343-2.39-1.55-2.672-2.524-5.557a4.512 4.512 0 0 1 .706-4.345 9.178 9.178 0 0 1 5.42-3.146Z" />
  <path fill="#B5806D"
    d="M138.091 27.19c1.594 1.101 4.648 1.027 4.648 1.027l.01.071c-1.186.155-2.31.272-2.331 1.324.056.588.181 1.168.372 1.727-2.086-1.177-2.699-4.15-2.699-4.15Z" />
  <path fill="#B5806D" fillRule="evenodd"
    d="M133.816 17.88a.86.86 0 0 1 .574-.033 2.99 2.99 0 0 0-.428.297c-.059.05-.118.1-.175.153.11.09.204.2.278.322.112.176.187.373.222.579a1.467 1.467 0 0 1-.269 1.172 9.546 9.546 0 0 0-.112-1.107 10.116 10.116 0 0 0-.213-.876 3.904 3.904 0 0 0-.086.086 3.275 3.275 0 0 0-.195.202 4.466 4.466 0 0 1-.149.159 4.41 4.41 0 0 1-.383.383c.007-.19.051-.377.131-.55.079-.173.188-.33.322-.467.137-.139.302-.247.483-.32Z"
    clipRule="evenodd" />
  <path fill="#2E2C33"
    d="M137.005 22.597s-.833-3.469-.694-4.465c.193-1.388.29-2.082.119-2.645-.273-.9.165-1.022.722-1.997.523-.916 2.173-.193 2.582-.348 1.147-.436 1.101-.921 1.879-.976.797-.057 1.381-.273 1.901.239.531.521 1.508 1.912 1.744 1.668.496-.674.797-1.47.87-2.304a5.058 5.058 0 0 0-.585-2.355c-.193-.42-.91-1.98-2.378-2.386-.846-.234-1.004.174-2.829.298-1.892.129-1.954-.295-2.943-.004-1.095.322-1.049.849-2.916 1.89-.619.335-1.255.636-1.907.901-2.346 1.019-2.655.862-3.192 1.39-1.158 1.14-.951 3.081-.901 3.55.141 1.32.66 1.713 1.798 3.82 1.803 3.337 1.459 4.749 2.114 5.213.321.228 1.994-.984 1.981-1.575-.017-.774-.576-1.013-1.241-2.126-.465-.778-1.132-1.895-.762-2.916.224-.617.481-.45 1.118-.397.864.073 1.299 1.274 1.653 2.155.255.638.369 1.324.333 2.01-.079 1.531 1.837 1.967 1.534 1.36Z" />
  <path fill="#0A0709"
    d="M145.078 19.112c.268-.003.483-.275.48-.609-.003-.334-.222-.602-.49-.6-.268.002-.483.275-.48.609.003.333.222.602.49.6ZM140.703 19.15c.268-.003.483-.275.48-.609-.003-.334-.222-.602-.49-.6-.268.002-.483.275-.48.608.003.334.222.603.49.6Z" />
  <path fill="#494752"
    d="M142.756 17.446c.06 0 .117-.019.166-.051a2.592 2.592 0 0 1 2.93-.037.305.305 0 0 0 .427-.065.308.308 0 0 0-.063-.428 3.25 3.25 0 0 0-3.632.018.306.306 0 0 0-.124.346.308.308 0 0 0 .296.217ZM138.221 17.485a.304.304 0 0 0 .166-.052 2.616 2.616 0 0 1 2.93-.037.309.309 0 0 0 .227.057.3.3 0 0 0 .201-.12.31.31 0 0 0 .057-.228.305.305 0 0 0-.121-.202 3.249 3.249 0 0 0-3.632.019.306.306 0 0 0-.124.346.308.308 0 0 0 .296.217Z" />
  <path fill="#B5806D"
    d="M142.34 17.574a2.298 2.298 0 0 0 .069 1.556c.177.497.431.963.754 1.38l.255.287a.31.31 0 0 1 .104.223.788.788 0 0 1-.277.532c-.39.293-.876.43-1.362.38a1.704 1.704 0 0 0 1.555-.148 1.043 1.043 0 0 0 .45-.763.679.679 0 0 0-.18-.467l-.247-.29a7.011 7.011 0 0 1-.777-1.258 2.939 2.939 0 0 1-.344-1.432Z" />
  <path fill="#9D6D5C" d="M140.894 24.077s1.926 1.769 3.62-.03l-3.62.03Z" />
  <path fill="#FFBA55"
    d="M141.323 33.07s3.386 9.803-9.559-4.76l-5.625 4.678a6.871 6.871 0 0 0-2.284 3.828l-.827 6.362a94.912 94.912 0 0 0-.022 24.292l.836 6.525 24.186 3.326a61.548 61.548 0 0 1-2.394-14.328c-.272-5.81.447-8.281.172-13.1a44.697 44.697 0 0 0-4.483-16.823Z" />
  <path fill="#E6952A"
    d="M144.851 72.189c-.438-.251-.884-.48-1.324-.719l-1.291-.76a21.73 21.73 0 0 1-2.406-1.758 13.414 13.414 0 0 1-2.054-2.136 9.148 9.148 0 0 1-.793-1.255 5.64 5.64 0 0 1-.554-1.387 6.416 6.416 0 0 0 1.104 2.814 10.782 10.782 0 0 0 2.047 2.259c.776.654 1.616 1.23 2.506 1.718l1.357.674c.471.184.935.379 1.408.55Z" />
  <path fill="#FFBA55" d="M132.518 39.238s1.096-2.614 15.431 18.004l-5.447 7.08s-7.908-6.518-11.491-12.144" />
  <path fill="#E6952A"
    d="M132.518 39.238c.069-.118.223-.118.343-.106.125.024.248.059.366.105.229.11.448.238.656.383.211.138.413.29.604.457.192.164.398.314.577.49a35.518 35.518 0 0 1 2.141 2.136c1.371 1.478 2.633 3.047 3.899 4.61a141.958 141.958 0 0 1 3.658 4.799c1.208 1.609 2.341 3.27 3.512 4.903l.169.236-2.91 3.768-2.978 3.82-.282-.24a68.332 68.332 0 0 1-3.122-2.826 85.222 85.222 0 0 1-2.966-2.983 48.246 48.246 0 0 1-2.764-3.17 31.055 31.055 0 0 1-2.41-3.442 38.912 38.912 0 0 0 2.619 3.264 82.872 82.872 0 0 0 2.891 3.019c.99.98 2.012 1.928 3.049 2.858 1.042.922 2.091 1.846 3.161 2.724l-.514.058 2.702-3.556L147.636 57l-.012.468c-1.153-1.64-2.291-3.293-3.462-4.92-1.155-1.64-2.345-3.252-3.53-4.87-1.202-1.602-2.414-3.2-3.709-4.725a35.745 35.745 0 0 0-1.999-2.237c-.169-.186-.361-.343-.541-.517a6.02 6.02 0 0 0-.568-.485 4.505 4.505 0 0 0-.613-.424 2.017 2.017 0 0 0-.345-.13c-.115-.02-.262-.033-.339.078Z" />
  <path fill="#D19E8A" d="m169.704 112.137 1.295 6.567 12.691 2.047-16.97 5.16-3.573-11.78 6.557-1.994Z" />
  <path fill="#251D1B"
    d="m185.569 120.812-.011-.039a1.686 1.686 0 0 0-1.32-1.168l-13.226-2.301a.557.557 0 0 0-.622.36l-1.336 3.67a.565.565 0 0 1-.662.352l-3.112-.781a.56.56 0 0 0-.671.707l1.547 5.103a.558.558 0 0 0 .699.374l18.341-5.578a.56.56 0 0 0 .373-.699Z" />
  <path fill="#808B49"
    d="M123.38 69.218s-3.865 17.154 3.521 16.847h28.078l7.565 30.572s2.908 1.188 5.433.658c1.734-.363 3.228-2.02 4.267-2.867 0 0-5.526-43.83-15.98-45.16-13.04-1.66-32.884-.05-32.884-.05Z" />
  <path fill="#5E7C24"
    d="M154.979 86.065a18.698 18.698 0 0 0 1.729-2.59c.235-.45.476-.899.687-1.372.223-.47.413-.957.67-1.457a4.73 4.73 0 0 1-.079 1.652 5.622 5.622 0 0 1-.58 1.562 5.38 5.38 0 0 1-1.02 1.324c-.395.398-.877.7-1.407.88Z" />
  <path fill="#6F56A5" d="M175.327 69.141c4.614 0 4.622-7.182 0-7.182-4.615 0-4.623 7.182 0 7.182Z" />
  <path fill="#D19E8A"
    d="m147.788 57.643 21.571 2.88s8.81-3.274 10.605 1.369c.237.641.244 1.345.019 1.99-.538 1.616-1.81 4.805-2.742 2.144l-.958-2.736s-3.306 2.293-6.501 1.156c-1.154-.41-16.603 2.602-24.931.568l-2.349-.693 5.286-6.678Z" />
  <path fill="#1E1D22"
    d="M104.41 153.328c10.321 0 18.689-8.402 18.689-18.766 0-10.364-8.368-18.766-18.689-18.766-10.322 0-18.69 8.402-18.69 18.766 0 10.364 8.368 18.766 18.69 18.766Z" />
  <path fill="#848384" fillRule="evenodd"
    d="M114.109 134.562c0 5.379-4.342 9.739-9.699 9.739s-9.7-4.36-9.7-9.739c0-5.379 4.343-9.739 9.7-9.739 5.357 0 9.699 4.36 9.699 9.739Zm-10.068 2.44c1.829 0 1.832-2.847 0-2.847-1.829 0-1.832 2.847 0 2.847Z"
    clipRule="evenodd" />
  <path fill="#1E1D22"
    d="M205.811 153.328c10.322 0 18.689-8.402 18.689-18.766 0-10.364-8.367-18.766-18.689-18.766s-18.689 8.402-18.689 18.766c0 10.364 8.367 18.766 18.689 18.766Z" />
  <path fill="#848384" fillRule="evenodd"
    d="M215.51 134.562c0 5.379-4.342 9.739-9.699 9.739s-9.699-4.36-9.699-9.739c0-5.379 4.342-9.739 9.699-9.739s9.699 4.36 9.699 9.739Zm-10.068 3.889c3.692 0 3.698-5.745 0-5.745-3.692 0-3.698 5.745 0 5.745Z"
    clipRule="evenodd" />
  <path fill="#8E6CD8" d="m178.168 59.805 12.644-6.04.648 13.838-12.157-3.94-1.135-3.858Z" />
  <path fill="#FFBA55"
    d="M191.394 67.606c1.185-.055 2.001-3.198 1.822-7.02-.179-3.82-1.285-6.873-2.47-6.818-1.185.056-2.001 3.199-1.822 7.02.179 3.822 1.285 6.874 2.47 6.818Z" />
  <path fill="#E6952A"
    d="M190.746 53.768a1.048 1.048 0 0 0-.672.584c-.147.27-.26.555-.337.852-.161.599-.272 1.21-.333 1.827a27.185 27.185 0 0 0 .351 7.453c.118.608.286 1.206.502 1.787.104.288.243.562.414.817a1.06 1.06 0 0 0 .723.518 1.075 1.075 0 0 1-.889-.373 3.647 3.647 0 0 1-.6-.79 8.69 8.69 0 0 1-.753-1.807 16.88 16.88 0 0 1-.36-7.7c.123-.644.318-1.27.581-1.87a3.64 3.64 0 0 1 .523-.843 1.086 1.086 0 0 1 .85-.455Z" />
  <path fill="#8E6CD8"
    d="M229.704 132.424s-17.032-8.552-47.313 2.85h-54.088s-17.979 11.402-48.26 2.851c0 0-3.785-6.651 5.678-20.904 0 0 5.678-16.152 9.463-19.003l52.177.027s-1.217 26.379 17.708 28.279c18.926 1.901 17.033-16.152 17.033-16.152l-2.505-39.954a74.448 74.448 0 0 0-.517-7.58c-.344-2.934-1.338-2.526-.155-1.932 1.892.95 20.499 21.16 24.284 49.664 0 0 21.764-2.85 26.495 21.854Z" />
  <path fill="#6F56A5"
    d="M93.112 98.97h51.636c3.136 0 5.678-2.89 5.678-6.453s-2.542-6.452-5.678-6.452H93.112c-3.135 0-5.678 2.889-5.678 6.452 0 3.564 2.543 6.453 5.678 6.453ZM128.303 135.274a32.977 32.977 0 0 0 3.899-8.304c.883-2.895 1.26-5.986.572-8.85a12.031 12.031 0 0 0-4.921-7.009c-.149-.107-.289-.226-.447-.324l-.473-.291c-.317-.191-.62-.403-.949-.578-.67-.328-1.304-.711-2.015-.98l-1.042-.44c-.336-.139-.68-.262-1.028-.367a24.002 24.002 0 0 0-2.165-.556 32.479 32.479 0 0 0-8.977-.608 37.725 37.725 0 0 0-4.494.568c-1.488.281-2.954.668-4.411 1.093a53.261 53.261 0 0 0-16.131 8.593l1.725-1.549 1.806-1.46 1.87-1.384c.645-.43 1.283-.876 1.937-1.296a43.265 43.265 0 0 1 8.403-4.087 37.65 37.65 0 0 1 9.184-1.986 33.281 33.281 0 0 1 9.421.556c.775.17 1.544.368 2.308.613.377.121.775.258 1.145.42l1.085.468c.731.285 1.424.702 2.133 1.06.35.191.681.422 1.021.632.345.206.675.437.988.69a13.105 13.105 0 0 1 5.237 7.955c.307 1.58.349 3.199.126 4.792a21.18 21.18 0 0 1-1.173 4.575 30.16 30.16 0 0 1-2.015 4.219 27.59 27.59 0 0 1-2.619 3.835Z" />
  <path fill="#6F56A5"
    d="M122.058 114.428a18.3 18.3 0 0 1-2.885 2.734 29.148 29.148 0 0 1-3.31 2.227c-.564.358-1.162.648-1.752.956-.587.318-1.198.581-1.803.859-.302.141-.608.271-.913.403l-.933.355c-.625.227-1.24.485-1.873.686a45.679 45.679 0 0 1-7.75 1.792c-1.306.216-2.635.27-3.947.387a59.416 59.416 0 0 1-3.96-.004c1.29-.307 2.582-.516 3.863-.774l1.912-.415c.637-.137 1.277-.244 1.904-.419a63.45 63.45 0 0 1 1.892-.458c.635-.129 1.249-.342 1.874-.509.619-.186 1.255-.313 1.866-.524l1.845-.591c.62-.183 1.219-.422 1.83-.631l.911-.326c.298-.123.595-.248.897-.362 1.212-.447 2.382-.993 3.56-1.524.582-.28 1.171-.551 1.741-.856l.866-.444.847-.476a33.526 33.526 0 0 0 3.318-2.086ZM124.271 120.695a18.262 18.262 0 0 1-2.885 2.735 28.996 28.996 0 0 1-3.309 2.226c-.564.358-1.162.648-1.753.956-.587.318-1.197.581-1.802.859-.302.141-.608.271-.914.404l-.932.354c-.625.227-1.241.486-1.874.687a45.643 45.643 0 0 1-7.749 1.791c-1.306.216-2.635.27-3.948.388a59.415 59.415 0 0 1-3.96-.005c1.291-.306 2.582-.516 3.863-.773l1.913-.415c.636-.138 1.277-.245 1.904-.42a62.628 62.628 0 0 1 1.891-.457c.635-.13 1.249-.342 1.874-.51.619-.186 1.256-.312 1.867-.524l1.845-.59c.619-.184 1.218-.423 1.829-.631l.912-.327c.298-.122.595-.247.896-.362 1.213-.447 2.382-.992 3.561-1.523.581-.28 1.17-.552 1.74-.857l.866-.443.848-.477a33.443 33.443 0 0 0 3.317-2.086ZM185.627 68.411a29.2 29.2 0 0 1-1.666-1.614l-1.58-1.65a35.959 35.959 0 0 0-1.592-1.6 8.971 8.971 0 0 0-.856-.714 2.231 2.231 0 0 0-1.008-.456 1.844 1.844 0 0 1 1.191.11c.372.15.727.34 1.057.57.647.449 1.245.965 1.784 1.54a16.68 16.68 0 0 1 1.481 1.803c.459.63.858 1.304 1.189 2.011ZM203.209 110.57a28.235 28.235 0 0 0-7.903 3.41 26.066 26.066 0 0 0-3.398 2.544 22.187 22.187 0 0 0-2.915 3.058 24.159 24.159 0 0 0-2.379 3.501c-.19.3-.345.619-.51.933-.159.318-.34.625-.481.952-.283.652-.6 1.292-.85 1.962a49.44 49.44 0 0 0-2.382 8.344 27.55 27.55 0 0 1 1.209-8.758 23.624 23.624 0 0 1 4.153-7.936 21.99 21.99 0 0 1 11.087-7.329 17.284 17.284 0 0 1 4.369-.681Z" />
  <path fill="#464646"
    d="M114.141 84.524h-18.74l-4.226-4.45a.649.649 0 0 0-.985.028.834.834 0 0 0 .026 1.093l3.16 3.329h-5.041v-3.512a.702.702 0 0 0-1.217-.542.702.702 0 0 0-.177.542v3.512H83.5a.775.775 0 0 0-.497 1.294.776.776 0 0 0 .497.252h3.442v3.512a.702.702 0 0 0 .981.713.7.7 0 0 0 .413-.713V86.07h6.51l3.51 3.697a.65.65 0 0 0 .986-.03.834.834 0 0 0-.026-1.092L96.87 86.07h17.271a.776.776 0 0 0 0-1.546Z" />
  <path fill="#616161"
    d="M87.666 85.805a.55.55 0 0 0 .377-.934.55.55 0 0 0-.377-.167.55.55 0 0 0-.377.933.55.55 0 0 0 .377.168ZM87.666 89.945a.55.55 0 0 0 0-1.101.55.55 0 0 0-.377.933.55.55 0 0 0 .377.168ZM90.801 81.3a.55.55 0 0 0 0-1.102.55.55 0 0 0 0 1.102ZM87.666 81.677a.55.55 0 0 0 .377-.934.55.55 0 0 0-.377-.168.55.55 0 0 0 0 1.102ZM94.815 85.805a.55.55 0 0 0 .377-.934.55.55 0 0 0-.377-.167.55.55 0 0 0-.377.933.55.55 0 0 0 .377.168ZM98.737 85.66a.55.55 0 0 0 0-1.103.55.55 0 0 0-.377.934.55.55 0 0 0 .377.168ZM98.737 89.69a.55.55 0 0 0 0-1.102.55.55 0 0 0-.377.934.55.55 0 0 0 .377.168ZM83.861 85.805a.55.55 0 0 0 .377-.934.55.55 0 0 0-.377-.167.55.55 0 0 0-.377.933.55.55 0 0 0 .377.168ZM113.545 85.805a.553.553 0 0 0 .377-.934.553.553 0 0 0-.377-.167.55.55 0 0 0-.532.55.553.553 0 0 0 .532.551Z" />
  <path fill="#584432"
    d="M112.944 84.51H84.53a1.545 1.545 0 0 1-1.545-1.548v-20.84h31.505v20.84a1.549 1.549 0 0 1-1.546 1.548Z" />
  <path fill="#785A3F"
    d="M102.35 68.57c-.102-.155-.251-.16-.42-.165l-.058-.002h-.049c-.069.001-.149.002-.19-.055-.047-.067-.042-.197-.039-.303a.984.984 0 0 0 .002-.092c-.007-.248-.02-.512-.116-.6-.072-.066-.288-.056-.487-.048-.065.003-.128.005-.183.005h-4.239c-.085 0-.174-.007-.262-.014-.171-.013-.337-.026-.454.014-.17.058-.182.365-.193.653v.015c-.01.238-.069.422-.264.403-.227-.021-.453-.028-.556.178-.121.243-.096.498-.052.954.007.066.014.135.02.209h7.605l.014-.16c.035-.41.066-.768-.079-.992Z" />
  <path fill="#785A3F" fillRule="evenodd"
    d="m95.403 70.174.353 4.827.192 2.623h.243l.055.484c.04.361.085.76.123 1.005h.027c.247-.09 1.956-.82 1.956-3.729l.001-.024h-.422a.094.094 0 0 1-.09-.07 2.122 2.122 0 0 1-.098-.312c-.249.14-.446.355-.564.612a1.207 1.207 0 0 1-.041-.832c.085-.273.264-.508.507-.664.003-.848.321-1.666.893-2.3l.01-.007a.093.093 0 0 1 .06-.023.093.093 0 0 1 .067.03c.579.634.895 1.46.885 2.314a1.176 1.176 0 0 1 .464 1.495 1.336 1.336 0 0 0-.563-.612 1.262 1.262 0 0 1-.084.3c-.013.042-.041.069-.069.069h-.45l.001.014v.017c.007 2.991 1.823 3.67 1.976 3.722h.053c.013-.235.057-.56.099-.877.029-.219.058-.433.076-.612h.246c.078-1.1.159-2.198.24-3.295.103-1.404.206-2.809.305-4.22h-6.436c-.018.004-.017.035-.015.065Z"
    clipRule="evenodd" />
  <path fill="#785A3F"
    d="M118.304 57.098v2.834a2.093 2.093 0 0 1-1.976 2.192H81.144a2.087 2.087 0 0 1-1.972-2.193v-2.833a2.092 2.092 0 0 1 1.972-2.188h35.184a2.09 2.09 0 0 1 1.976 2.188Z" />
</svg>
